<svg width="59" height="60" viewBox="0 0 59 60" fill="none" xmlns="http://www.w3.org/2000/svg">
<path d="M29.1667 0C13.0667 0 0 13.2533 0 29.5833C0 45.9133 13.0667 59.1667 29.1667 59.1667C45.2667 59.1667 58.3333 45.9133 58.3333 29.5833C58.3333 13.2533 45.2667 0 29.1667 0ZM29.1667 25.625C29.1667 26.1773 29.6144 26.625 30.1667 26.625H39.8333C40.3856 26.625 40.8333 27.0727 40.8333 27.625V31.5417C40.8333 32.094 40.3856 32.5417 39.8333 32.5417H30.1667C29.6144 32.5417 29.1667 32.9894 29.1667 33.5417V38.978C29.1667 39.8724 28.0824 40.317 27.4546 39.6801L18.1922 30.2854C17.8083 29.8961 17.8083 29.2706 18.1922 28.8813L27.4546 19.4866C28.0824 18.8497 29.1667 19.2943 29.1667 20.1886V25.625Z" fill="#2B3647"/>
</svg>
