<svg width="59" height="60" viewBox="0 0 59 60" fill="none" xmlns="http://www.w3.org/2000/svg">
<path d="M29.1667 0C45.2667 0 58.3333 13.2533 58.3333 29.5833C58.3333 45.9133 45.2667 59.1667 29.1667 59.1667C13.0667 59.1667 0 45.9133 0 29.5833C0 13.2533 13.0667 0 29.1667 0ZM29.1667 25.625C29.1667 26.1773 28.719 26.625 28.1667 26.625H18.5C17.9477 26.625 17.5 27.0727 17.5 27.625V31.5417C17.5 32.094 17.9477 32.5417 18.5 32.5417H28.1667C28.719 32.5417 29.1667 32.9894 29.1667 33.5417V38.978C29.1667 39.8724 30.2509 40.317 30.8788 39.6801L40.1412 30.2854C40.525 29.8961 40.525 29.2706 40.1412 28.8813L30.8788 19.4866C30.2509 18.8497 29.1667 19.2943 29.1667 20.1886V25.625Z" fill="#2B3647"/>
</svg>
